<svg id="Layer_1" data-name="Layer 1" xmlns="http://www.w3.org/2000/svg" viewBox="0 0 1148.52 230.08"><defs><style>.cls-1{fill:#fff;}</style></defs><title>dovetail_logo_1_white</title><path class="cls-1" d="M8855,2908.11q-20.83,0-37.16-6.84a80.87,80.87,0,0,1-27.52-18.5,78.09,78.09,0,0,1-16.95-27.05,92.89,92.89,0,0,1,0-64.36,78.08,78.08,0,0,1,16.95-27.05,82.8,82.8,0,0,1,27.52-18.66q16.32-7,37.16-7t37,7a83.22,83.22,0,0,1,27.36,18.66,80.08,80.08,0,0,1,17.1,27.05,89.11,89.11,0,0,1,5.91,32.18,91.2,91.2,0,0,1-5.75,32.18,78.17,78.17,0,0,1-16.95,27.05,80.87,80.87,0,0,1-27.52,18.5Q8875.87,2908.11,8855,2908.11Zm-36.38-84.57q0,19.28,10.26,30.94t26.12,11.66a32.82,32.82,0,0,0,14.3-3.11,34.31,34.31,0,0,0,11.35-8.71,41.82,41.82,0,0,0,7.62-13.53,51.51,51.51,0,0,0,2.8-17.26q0-19.27-10.26-30.94a32.92,32.92,0,0,0-25.81-11.66,33.77,33.77,0,0,0-26,11.82,41.72,41.72,0,0,0-7.62,13.53A51.51,51.51,0,0,0,8818.66,2823.54Z" transform="translate(-8565 -2678.03)"/><path class="cls-1" d="M8990,2905l-57.83-163.24h51l35.76,123.44L9055,2741.77h46.64L9043.76,2905H8990Z" transform="translate(-8565 -2678.03)"/><path class="cls-1" d="M9177.52,2908.11q-20.52,0-36.85-6.68a81.85,81.85,0,0,1-27.67-18.19,77.81,77.81,0,0,1-17.26-26.58,85.71,85.71,0,0,1-5.91-31.56,94.1,94.1,0,0,1,5.91-33.42,81.06,81.06,0,0,1,17.1-27.52,79.86,79.86,0,0,1,27.52-18.66q16.32-6.83,37.16-6.84t37,6.84a81.34,81.34,0,0,1,27.36,18.5,78.51,78.51,0,0,1,16.95,26.89,90,90,0,0,1,5.75,32q0,4.36-.31,8.55a61.11,61.11,0,0,1-.93,7.31H9142.7q1.24,16.48,12,25a38.07,38.07,0,0,0,24.41,8.55,44.68,44.68,0,0,0,21-5.29q10.1-5.28,13.53-14.3l42.29,11.82q-9.64,19.28-29.85,31.4T9177.52,2908.11ZM9212,2808q-1.56-15.54-11.19-24.56t-23.94-9q-14.62,0-24.1,9.17t-11,24.41H9212Z" transform="translate(-8565 -2678.03)"/><path class="cls-1" d="M9380.64,2896.3a201.61,201.61,0,0,1-23.32,8.08,96.9,96.9,0,0,1-26.74,3.73,64.21,64.21,0,0,1-17.57-2.33,39.16,39.16,0,0,1-14.46-7.46,34.79,34.79,0,0,1-9.79-13.53q-3.58-8.39-3.58-20.21v-85.19h-20.83v-37.62h20.83v-51.93h49.75v51.93h33.27v37.62h-33.27v68.09q0,8.09,4.2,11.66a15.49,15.49,0,0,0,10.42,3.58,37.22,37.22,0,0,0,11.19-1.87,87,87,0,0,0,10.57-4Z" transform="translate(-8565 -2678.03)"/><path class="cls-1" d="M9439.92,2908.11a64,64,0,0,1-22.54-3.89,52.69,52.69,0,0,1-17.88-10.88,52.13,52.13,0,0,1-11.82-16.48,48.92,48.92,0,0,1-4.35-20.68,47.46,47.46,0,0,1,5.13-22.08,50.7,50.7,0,0,1,14.46-17.1,71.42,71.42,0,0,1,22.08-11.19,93.39,93.39,0,0,1,28.29-4,114.1,114.1,0,0,1,19.9,1.71,65.53,65.53,0,0,1,16.79,5.13v-7.46q0-28.29-32.65-28.29a72.63,72.63,0,0,0-25.5,4.51,122.61,122.61,0,0,0-25.5,13.53l-14.61-31.09a130.56,130.56,0,0,1,33.58-15.86,126.74,126.74,0,0,1,37-5.29q37,0,57.21,17.41t20.21,51v42q0,7.46,2.8,10.42t9.95,3.58v42a98.4,98.4,0,0,1-13.21,2q-6.06.47-10.73,0.47-13.69-.31-20.83-5.6t-9-15.24l-0.93-7.46a74.59,74.59,0,0,1-26,21.45A71,71,0,0,1,9439.92,2908.11Zm14.61-35.76a45.2,45.2,0,0,0,15.7-2.8,36.61,36.61,0,0,0,12.59-7.46q7.15-5.6,7.15-11.82v-15.55a80.71,80.71,0,0,0-14.15-3.89,78.68,78.68,0,0,0-14.15-1.4q-13.69,0-22.54,6.22t-8.86,16.17a18.41,18.41,0,0,0,6.84,14.77Q9444,2872.36,9454.54,2872.36Z" transform="translate(-8565 -2678.03)"/><path class="cls-1" d="M9563.65,2723.11V2678h49.75v45.08h-49.75Zm0,181.89V2741.77h49.75V2905h-49.75Z" transform="translate(-8565 -2678.03)"/><path class="cls-1" d="M9624.9,2678h49.75v166q0,18.66,16.17,18.65a30.28,30.28,0,0,0,7.93-1.24,45.22,45.22,0,0,0,8.24-3.11l6.53,40.11a96.36,96.36,0,0,1-21.45,6.84,112.08,112.08,0,0,1-22.39,2.49q-21.45,0-33.11-11.19t-11.66-32.34V2678Z" transform="translate(-8565 -2678.03)"/><path class="cls-1" d="M8751.56,2751.5a96.54,96.54,0,0,0-55.38-58.79q-20.59-8.73-48-8.71H8565v82.64c24.14-11.28,97.64-44.65,118.31-27.7,21.85,17.91,24.17,98.35,0,113-23.09,14-95.15-18.08-118.32-29V2905h83.13c16.64,0,31.77-2.42,45.39-7.72a99.83,99.83,0,0,0,34.94-22.35,98,98,0,0,0,22.31-34.88q7.79-20.43,7.8-45.68A129.16,129.16,0,0,0,8751.56,2751.5Z" transform="translate(-8565 -2678.03)"/></svg>